<svg xmlns="http://www.w3.org/2000/svg" viewBox="0 0 64 64" width="64" height="64">
  <rect width="64" height="64" rx="10" fill="#0b0b0b"/>
  <g transform="translate(6,6)">
    <path d="M18 0c1.1 0 2 .9 2 2v5.5l7 7c2.6 2.6 2.6 6.8 0 9.4L26 34c-2.4 2.4-6.2 2.4-8.6 0L2 19.4c-2.6-2.6-2.6-6.8 0-9.4L9 5.5V2c0-1.1.9-2 2-2z" fill="#111"/>
    <path d="M25 16c1.3 1.3 1.3 3.4 0 4.7L21.7 24c-.7.7-1.8.7-2.5 0L7 11.6c-1.3-1.3-1.3-3.4 0-4.7L18.7 0H20v16h5z" fill="url(#g)"/>
    <defs>
      <linearGradient id="g" x1="0" y1="0" x2="1" y2="1">
        <stop offset="0%" stop-color="#39FF14"/>
        <stop offset="100%" stop-color="#00b33c"/>
      </linearGradient>
    </defs>
  </g>
</svg>
